<mxfile host="app.diagrams.net" agent="Mozilla/5.0 (Windows NT 10.0; Win64; x64) AppleWebKit/537.36 (KHTML, like Gecko) Chrome/140.0.0.0 Safari/537.36" version="28.2.5">
  <diagram name="Page-1" id="U-qPxButuCx1mBuPet7c">
    <mxGraphModel dx="2946" dy="1103" grid="1" gridSize="10" guides="1" tooltips="1" connect="1" arrows="1" fold="1" page="1" pageScale="1" pageWidth="827" pageHeight="1169" math="0" shadow="0">
      <root>
        <mxCell id="0" />
        <mxCell id="1" parent="0" />
        <mxCell id="P30LBm1_toSOdPhXJkdn-1" value="1" style="rounded=1;whiteSpace=wrap;html=1;fillColor=#d5e8d4;strokeColor=#82b366;" parent="1" vertex="1">
          <mxGeometry x="41" y="80" width="120" height="60" as="geometry" />
        </mxCell>
        <mxCell id="P30LBm1_toSOdPhXJkdn-2" value="4" style="rounded=1;whiteSpace=wrap;html=1;fillColor=#d5e8d4;strokeColor=#82b366;" parent="1" vertex="1">
          <mxGeometry x="401" y="80" width="120" height="60" as="geometry" />
        </mxCell>
        <mxCell id="P30LBm1_toSOdPhXJkdn-3" value="3" style="rounded=1;whiteSpace=wrap;html=1;fillColor=#d5e8d4;strokeColor=#82b366;" parent="1" vertex="1">
          <mxGeometry x="281" y="80" width="120" height="60" as="geometry" />
        </mxCell>
        <mxCell id="P30LBm1_toSOdPhXJkdn-4" value="2" style="rounded=1;whiteSpace=wrap;html=1;fillColor=#d5e8d4;strokeColor=#82b366;" parent="1" vertex="1">
          <mxGeometry x="161" y="80" width="120" height="60" as="geometry" />
        </mxCell>
        <mxCell id="P30LBm1_toSOdPhXJkdn-5" value="5" style="rounded=1;whiteSpace=wrap;html=1;fillColor=#d5e8d4;strokeColor=#82b366;" parent="1" vertex="1">
          <mxGeometry x="521" y="80" width="120" height="60" as="geometry" />
        </mxCell>
        <mxCell id="P30LBm1_toSOdPhXJkdn-6" value="6" style="rounded=1;whiteSpace=wrap;html=1;fillColor=#d5e8d4;strokeColor=#82b366;" parent="1" vertex="1">
          <mxGeometry x="641" y="80" width="120" height="60" as="geometry" />
        </mxCell>
        <mxCell id="P30LBm1_toSOdPhXJkdn-7" value="7" style="rounded=1;whiteSpace=wrap;html=1;fillColor=#d5e8d4;strokeColor=#82b366;" parent="1" vertex="1">
          <mxGeometry x="761" y="80" width="120" height="60" as="geometry" />
        </mxCell>
        <mxCell id="P30LBm1_toSOdPhXJkdn-8" value="9" style="rounded=1;whiteSpace=wrap;html=1;fillColor=#d5e8d4;strokeColor=#82b366;" parent="1" vertex="1">
          <mxGeometry x="1001" y="80" width="120" height="60" as="geometry" />
        </mxCell>
        <mxCell id="P30LBm1_toSOdPhXJkdn-9" value="8" style="rounded=1;whiteSpace=wrap;html=1;fillColor=#d5e8d4;strokeColor=#82b366;" parent="1" vertex="1">
          <mxGeometry x="881" y="80" width="120" height="60" as="geometry" />
        </mxCell>
        <mxCell id="P30LBm1_toSOdPhXJkdn-11" value="10" style="rounded=1;whiteSpace=wrap;html=1;fillColor=#d5e8d4;strokeColor=#82b366;" parent="1" vertex="1">
          <mxGeometry x="1121" y="80" width="120" height="60" as="geometry" />
        </mxCell>
        <mxCell id="P30LBm1_toSOdPhXJkdn-12" value="11" style="rounded=1;whiteSpace=wrap;html=1;fillColor=#d5e8d4;strokeColor=#82b366;" parent="1" vertex="1">
          <mxGeometry x="1241" y="80" width="120" height="60" as="geometry" />
        </mxCell>
        <mxCell id="P30LBm1_toSOdPhXJkdn-13" value="12" style="rounded=1;whiteSpace=wrap;html=1;fillColor=#d5e8d4;strokeColor=#82b366;" parent="1" vertex="1">
          <mxGeometry x="1361" y="80" width="120" height="60" as="geometry" />
        </mxCell>
        <mxCell id="WSe3DTJjHBgn2gBokQ_u-1" value="DNA Nl Bronnen en Datakwaliteit" style="rounded=1;whiteSpace=wrap;html=1;fillColor=#ffe6cc;strokeColor=#d79b00;" vertex="1" parent="1">
          <mxGeometry x="41" y="150" width="1439" height="60" as="geometry" />
        </mxCell>
        <mxCell id="WSe3DTJjHBgn2gBokQ_u-2" value="Implementatie PID&#39;s" style="rounded=1;whiteSpace=wrap;html=1;fillColor=#f8cecc;strokeColor=#b85450;" vertex="1" parent="1">
          <mxGeometry x="41" y="220" width="1439" height="60" as="geometry" />
        </mxCell>
        <mxCell id="WSe3DTJjHBgn2gBokQ_u-3" value="RCE Datavisie &amp;amp; Datastrategie" style="rounded=1;whiteSpace=wrap;html=1;fillColor=#e1d5e7;strokeColor=#9673a6;" vertex="1" parent="1">
          <mxGeometry x="41" y="290" width="959" height="60" as="geometry" />
        </mxCell>
        <mxCell id="WSe3DTJjHBgn2gBokQ_u-4" value="Uitfasering KIMOMO plus herbouw ETL&#39;s en services" style="rounded=1;whiteSpace=wrap;html=1;fillColor=#f5f5f5;strokeColor=#666666;fontColor=#333333;" vertex="1" parent="1">
          <mxGeometry x="41" y="360" width="1439" height="60" as="geometry" />
        </mxCell>
        <mxCell id="WSe3DTJjHBgn2gBokQ_u-5" value="Alternatief voor Access" style="rounded=1;whiteSpace=wrap;html=1;" vertex="1" parent="1">
          <mxGeometry x="641" y="430" width="359" height="60" as="geometry" />
        </mxCell>
      </root>
    </mxGraphModel>
  </diagram>
</mxfile>
